<svg id="svg" xmlns="http://www.w3.org/2000/svg" xmlns:xlink="http://www.w3.org/1999/xlink" version="1.1" width="420" height="420" preserveAspectRatio="xMidYMid meet" buffered-rendering="static" style="background: rgb(255, 255, 255);" viewBox="-0.04 47.78 420.05 372.24"><g><path d="M 183.5 47.99423624016986 C 182.4 47.59478480264617 180.47354327248235 47.7701696968937 179.21898504996076 48.38398044960884 C 177.96442682743918 48.99779120232398 176.95539253007414 49.95 176.9766866113718 50.5 C 176.99798069266944 51.05 175.45139486380805 52.4 173.53982921390204 53.5 C 171.62826356399603 54.6 170.27479786136107 55.8375 170.532127652491 56.25 C 170.78945744362096 56.6625 169.7625 57.643107443796296 168.25 58.42912765288066 C 166.7375 59.21514786196502 164.6 61.2388540353092 163.5 62.9262524825344 C 162.4 64.6136509297596 161.1625 65.9955434859633 160.75 65.99712482965374 C 160.3375 65.99870617334419 157.75 68.925 155 72.5 C 152.25 76.075 149.98862480684977 79.3375 149.9747217929995 79.75 C 149.9608187791492 80.1625 149.33669878629178 81.175 148.58778847553856 82 C 147.83887816478534 82.825 145.6123222190406 87.325 143.63988637388363 92 C 141.66745052872665 96.675 139.321657957328 104.1 138.4270139929978 108.5 C 137.1590228078345 114.73618046637714 136.94630777524512 119.36620674213715 137.46222126433366 129.5 C 137.82622922789866 136.65 138.73426969896818 144.3 139.4800889778215 146.5 C 140.51290385496745 149.54657280140907 141.57360263753964 150.73835679964773 143.93013522839965 151.5 C 145.63184138736432 152.05 147.91484487093223 153.85 149.003476302995 155.5 C 150.09210773505777 157.15 151.9991747890914 159.25660949384368 153.24140308973637 160.18135443076372 C 154.48363139038136 161.10609936768375 155.1374699486231 162.23109936768375 154.69437766360687 162.68135443076372 C 154.25128537859067 163.13160949384368 153.52003537859068 162.825 153.06937766360687 162 C 152.44868243665567 160.86371952546475 152.09845019772303 160.80309960455395 151.625 161.75 C 151.28125 162.4375 151.45 163.225 152 163.5 C 152.55 163.775 153.0008427187437 164.3375 153.00187270831938 164.75 C 153.00290269789505 165.1625 151.65290269789503 166.0625 150.00187270831938 166.75 C 148.0026454160498 167.58249170040128 146.81282162126044 168.9185182591172 146.43959683280707 170.75 C 146.13137509085095 172.2625 145.45637509085097 174.2875 144.93959683280707 175.25 C 144.42281857476317 176.2125 144 178.35 144 180 C 144 181.85508576220553 144.66786663871343 183.3359941169787 145.75 183.88039987421053 C 147.1828098880739 184.60122595719787 147.43083002849318 184.37466159153638 147.11837571353686 182.63039987421053 C 146.87834618523533 181.29044616832985 147.80592576536318 179.3462621205527 149.61837571353686 177.39046119555516 C 151.20326907109157 175.6802148531105 153.175 172.40564800488116 154 170.11364597726774 C 154.825 167.82164394965432 155.95 166.1077447067257 156.5 166.3049809929819 C 157.07579595051595 166.51146800192942 157.62122452820077 172.1435467817784 157.78576937996755 179.58179621126934 C 158.00013224996346 189.27206897477842 157.68778899795137 193.5619670568411 156.53576937996755 196.75 C 155.17570250370218 200.5137709798915 154.5709743940219 201.06578064582882 151.25 201.57497132670144 C 148.62294347644973 201.97776657327887 147.05082260942012 201.6987433651413 146 200.6431906516634 C 145.175 199.81447705070667 143.6 197.08500248383766 142.5 194.57769161417673 C 141.07433073191552 191.3280588392588 139.92566926808448 190.02623609159008 138.5 190.04433591744498 C 137.4 190.05830115390344 134.5155421763971 191.2915386237568 132.09009372532688 192.7848636282302 C 129.66464527425669 194.27818863270357 126.28964527425669 196.89395250160305 124.5900937253269 198.59767222578455 C 122.8905421763971 200.30139194996607 120.5502535129104 202.77639194996607 119.389452250912 204.09767222578455 L 117.278904501824 206.5 L 121.1508073192777 210.5 C 123.28035386887723 212.7 126.03010035596682 216.64785900512797 127.2613550683657 219.27302001139552 C 128.49260978076455 221.89818101766306 129.95 224.0557174256445 130.5 224.0675453624654 C 131.05 224.0793732992863 132.175 223.37397788617687 133 222.5 C 133.825 221.62602211382313 134.8375 220.9309857058417 135.25 220.95547464893014 C 135.6625 220.97996359201855 135.8875 221.7875 135.75 222.75 C 135.6125 223.7125 134.825 224.80587163182534 134 225.17971473738962 C 133.01284109221132 225.62703904256924 133.44020866905407 225.88345958867487 135.25 225.92971473738962 C 136.7625 225.96837163182533 137.775 226.45 137.5 227 C 137.225 227.55 137.5625 228.19673045882112 138.25 228.43717879738023 C 139.10524178309208 228.73629365674145 138.86838685294734 229.3627601869357 137.5 230.4208820597887 C 135.52618763927964 231.9471566124033 135.53273454909956 231.97988376221417 138 232.92031696198916 C 139.375 233.44441770243387 139.825 233.8901798461081 139 233.91089950348743 C 137.91527799026827 233.93814201063103 138.19212998378043 234.65493964449385 140 236.5 L 142.5 239.0514283921865 L 140.25 239.02571419609325 C 139.0125 239.01157138824198 138 239.45 138 240 C 138 240.55 138.45 241 139 241 C 139.55 241 139.775 241.45 139.5 242 C 139.225 242.55 140.575 243.225 142.5 243.5 C 144.425 243.775 146 244.45 146 245 C 146 245.55 144.9875 246.12318347724212 143.75 246.27374106053804 C 142.5125 246.42429864383396 141.6125 247.09929864383398 141.75 247.77374106053804 C 141.8943433993918 248.48175059596414 140.943433993918 249 139.5 249 C 138.125 249 136.775 249.675 136.5 250.5 C 136.225 251.325 135.4375 252.01556343082717 134.75 252.03458540183817 C 134.0625 252.05360737284914 132.375 251.22265064424874 131 250.18801489383725 C 129.625 249.15337914342578 128.19625 247.00031571259862 127.82499999999999 245.4034294919991 C 127.19109783944586 242.67677730237716 126.84607894039391 242.5 122.15833333332992 242.5 C 119.41291666666139 242.5 116.7916666666614 242.10089285714224 116.33333333332993 241.61309523809388 C 115.87499999999847 241.12529761904548 116.0625 240.56279761904548 116.75 240.36309523809388 C 117.4375 240.16339285714224 117.9978702490514 239.6625 117.99526722011423 239.25 C 117.99266419117706 238.8375 114.28016419117705 238.61745583239747 109.74526722011423 238.76101296088325 C 105.21037024905141 238.90457008936906 100.9375 239.24207008936907 100.25 239.51101296088325 C 99.5625 239.77995583239746 99.225 240.45 99.5 241 C 99.775 241.55 98.875 242.225 97.5 242.5 L 95 243 L 93.5 242.5 C 92.675 242.225 91.27403750881739 242.5625 90.38675001959419 243.25 C 88.92107817312711 244.38565152972942 88.94394786718122 244.5518930167166 90.63675001959419 245.06726837483927 C 91.9294785046439 245.46084089303832 90.73936743174791 246.14978407191958 86.75 247.31726837483927 C 83.5875 248.24277076867767 81 249.45 81 250 C 81 250.55 78.8625 251.6412208672106 76.25 252.42493526046798 C 72.72520273356452 253.4823263996143 70.98412516481494 253.57043024345887 69.5 252.76650588122902 C 67.6719822016104 251.7763009594639 67.64988437312851 251.63227143263882 69.24302191418687 251.09157062076105 C 70.63574075015727 250.61889065062712 70.33427889643765 250.21953014665982 67.74302191418687 249.10445102815044 C 64.83480401168308 247.85297613493455 64.16121971333808 247.9045952760539 61.218462576908706 249.60445102815044 C 58.310600534487996 251.28414996012194 57.94051638471306 251.98395619585955 57.968462576908706 255.75 C 57.985808159608915 258.0875 58.45 260.9 59 262 C 59.730951222629784 263.46190244525957 59.59434654120816 264.605359749083 58.49226797178993 266.25 C 57.663015356274386 267.4875 56.98801535627439 269.5125 56.99226797178993 270.75 C 56.99652058730547 271.9875 57.225 273.675 57.5 274.5 C 57.8921568627451 275.6764705882353 58.53921568627451 275.7843137254902 60.5 275 C 61.875 274.45 63.337500000000006 273.9925000000003 63.75 273.98333333333403 C 64.1625 273.9741666666677 63.929999999999694 274.5366666666677 63.23333333333264 275.23333333333403 C 62.5366666666656 275.9300000000003 61.9741666666656 277.2875 61.983333333332645 278.25 C 61.99249999999969 279.2125 62.45 280 63 280 C 63.55 280 64 280.675 64 281.5 C 64 282.325 64.45 283 65 283 C 65.55 283 65.8875 284.3446087237177 65.75 285.9880193860394 C 65.6125 287.6314300483611 65.87400221841585 289.0939300483611 66.33111604092413 289.2380193860394 C 66.7882298634324 289.38210872371775 66.1132298634324 291.6086902448829 64.83111604092413 294.185978321962 C 63.549002218415865 296.76326639904113 61.9375 299.12576639904114 61.25 299.435978321962 C 60.5625 299.7461902448829 59.10139721106337 299.4375 58.003104913474154 298.75 C 56.904812615884936 298.0625 56.342312615884936 297.09035360142207 56.753104913474154 296.58967466982676 C 57.16732076132453 296.0848230711755 56.94322963713868 295.9734689986032 56.25 296.33967466982676 C 55.5625 296.7028536014221 53.0875 295.9875 50.75 294.75 C 47.348319905207546 292.94911053805106 44.903162531374036 292.50502354946985 38.5 292.52516749296547 C 32.330579307812144 292.54457609944944 29.584710346093928 293.0326035885474 26.5 294.65794584139405 L 22.5 296.7655566968571 L 25.5 296.7328091331375 C 27.15 296.71479797309166 30.75 297.0317471151343 33.5 297.43714055989886 C 36.25 297.84253400466343 41.3125 299.48502015154446 44.75 301.08710977518996 C 48.1875 302.68919939883546 51 304.225 51 304.5 L 51 305 L 49.5 304.5 C 48.675 304.225 47.809258946848814 304.5625 47.57613099299736 305.25 C 47.26060483417254 306.18049430841864 46.877198004274945 306.1165931701024 46.07613099299736 305 C 45.29722652069508 303.91429880185945 44.79285059907028 303.8198640867858 44.25 304.658092005155 C 43.81834091576867 305.32462658435617 42.22663633692531 305.5964666985198 40.5 305.2985377522259 C 38.271350535095024 304.91398706686283 37.88567526754751 304.57452678077726 39 303.9782808626249 C 40.02677538018306 303.42888030508175 39.602295576926146 303.2268305083011 37.654508497187464 303.337835115554 C 36.08948817064057 303.4270258019993 34.62698817064057 303.8375 34.404508497187464 304.25 C 34.182028823734356 304.6625 33.55 305 33 305 C 32.45 305 32.2674495069327 304.2125 32.59433223762822 303.25 C 33.09473765750845 301.7765657331915 33.01813887014604 301.73705634273557 32.10964501214529 303 C 31.51618430743416 303.825 31.018871518115418 304.05 31.004505480325875 303.5 C 30.99013944253633 302.95 29.633248694003647 302.6125 27.989192705808804 302.75 C 26.34513671761396 302.8875 25.225 303.45 25.5 304 C 25.775 304.55 24.3125 305.6464201102207 22.25 306.4364891338237 C 20.1875 307.2265581574268 17.15 309.03989665417726 15.5 310.4661302377137 C 13.85 311.8923638212501 11.7125 313.04594371102945 10.75 313.02964110388996 C 9.7875 313.01333849675046 9.225 313.45 9.5 314 C 9.775 314.55 9.2125 315.86774594392153 8.25 316.9283243198256 C 7.2875 317.9889026957296 5.825 319.66512429765766 5 320.6532612129989 C 4.175 321.64139812834026 3.623548562044963 322.9111521844187 3.774552360099918 323.4749368931734 C 3.9255561581548726 324.03872160192805 3.123388527159122 325.4 1.9919576245538053 326.5 C -0.02609497931336513 328.4619915446381 -0.0645700333167063 329.36944341640344 -0.032594735546112474 374.25 L 0 420 L 16 420 C 26.476143768314863 420 32.08631025362008 419.6329814448669 32.25 418.93692076045625 L 32.5 417.87384152091244 L 35.25 418.93692076045625 C 37.06999310095568 419.64048326290674 56.5155918991552 420.00574346435053 92.75 420.0169832363397 C 142.94651887546897 420.0325540006043 147.33366278997147 419.9018337504261 145.5 418.4452332934877 C 143.59567668140744 416.93250247340967 143.66743419246302 416.8866875375426 147 417.487530012123 C 148.925 417.8345964559277 152.975 418.5340974860469 156 419.0419767457212 C 159.025 419.54985600539544 187.2625 419.97318002565675 218.75 419.98269679074633 L 276 420 L 276.36381794616614 417.75 L 276.7276358923323 415.5 L 276.86381794616614 417.75 L 277 420 L 298.5 420 C 313.9074074074233 420 319.9291559000863 419.68120155038804 319.75 418.8749999999986 C 319.6125 418.2562499999978 320.0625 417.5812499999978 320.75 417.3749999999986 C 321.4375 417.16874999999936 322 417.675 322 418.5 C 322 419.74242424242425 323.8888888888889 420 333 420 C 342.1111111111111 420 344 419.74242424242425 344 418.5 C 344 417.675 343.55 417 343 417 C 342.43423705336386 417 342.28635760091305 416.0229666299314 342.65944994489706 414.75 L 343.3188998897941 412.5 L 344.15944994489706 414.75 C 344.62175247520366 415.9875 345.675 417.675 346.5 418.5 C 347.6111111111111 419.6111111111111 350.3333333333333 420 357 420 L 366 420 L 365.41402184073416 416.25 C 365.09173385313795 414.1875 364.00503428720145 409.8 362.9991339164309 406.5 C 361.9932335456603 403.2 360.8797639769109 398.7 360.5247570969878 396.5 C 360.1697502170647 394.3 359.7038969120526 392.275 359.48952753029425 392 C 359.2751581485359 391.725 357.7136668818131 384.525 356.01954693757693 376 C 353.82570422857583 364.96033946246536 352.444471624053 360.16291243178654 351.21966442857376 359.3285964888375 C 349.76167426299924 358.33544063190624 349.72824883039794 358.0899825642963 351 357.7155012507459 C 351.825 357.4725708009349 352.275 357.0242512635751 352 356.7192356121685 C 351.725 356.4142199607619 350.2625 355.90261281790316 348.75 355.58233085026006 C 346.1233078866991 355.0261112678201 346.04203414635737 355.1233078866991 346.93744127465925 357.75 C 347.45303397572184 359.2625 347.56553397572185 360.85000000000116 347.18744127465925 361.27777777778044 C 346.80934857359665 361.70555555555967 346.05 362.05555555556083 345.5 362.05555555556083 C 344.95 362.05555555556083 344.81893447204703 361.70555555555967 345.2087432712156 361.27777777778044 C 345.5985520703842 360.85000000000116 344.7046804604863 358.925 343.22236191588695 357 C 341.74004337128764 355.075 337.70860889924063 350.6875 334.2636186446714 347.25 C 330.8186283901021 343.8125 327.55 341 327 341 C 326.45 341 326 340.55 326 340 C 326 339.45 326.3375 338.82405423654336 326.75 338.60900941454076 C 327.1625 338.39396459253817 329.525 339.0042076832359 332 339.96510517164677 C 334.9934328845722 341.1272797738739 335.99781096152407 341.9144797827014 335 342.3164110002742 C 334.175 342.6487317176083 334.85 342.64420114701124 336.5 342.306343065614 C 338.15 341.9684849842167 339.8358447451017 341.19884312479104 340.2463216557816 340.5960278224458 C 340.65679856646153 339.9932125201006 340.7670469118763 338.15 340.49131797892557 336.5 C 340.1646501373393 334.54517453845295 337.87089157232356 331.40965092309403 333.907464811939 327.5 C 330.5620745030471 324.2 327.3252947683317 320.6 326.7146209570159 319.5 C 325.76489905546595 317.7892764150899 325.8498785601228 317.6084786556587 327.3021524682208 318.25 C 328.6951374707868 318.86533131354247 328.9551104378475 318.5062148163223 328.75 316.25 C 328.6125 314.7375 328.05 313.5 327.5 313.5 C 326.95 313.5 326.44375 313.95 326.375 314.5 C 326.30625 315.05 326.1968329197128 316.175 326.1318509326951 317 C 326.045615969379 318.0948240889649 325.3713460991573 317.8247068149416 323.635639342157 316 C 322.3277049543787 314.625 321.4246220346659 313.1625 321.6287884094619 312.75 C 321.8329547842578 312.3375 321.4375 311.09850753181263 320.75 309.996683404028 C 319.8332205825017 308.5274038664921 318.43369413599453 307.9986938755892 315.5 308.01335007069395 C 312.2719298245619 308.02947691422634 311.7444444444447 307.78888888888747 312.76666666666733 306.76666666666597 C 313.4633333333344 306.0699999999997 314.0258333333344 304.9375 314.01666666666733 304.25 C 314.0075000000003 303.5625 313.55 303.225 313 303.5 C 312.45 303.775 310.0875 302.9194518605716 307.75 301.5987819123813 C 305.4125 300.278111964191 302.0375 298.92811196419103 300.25 298.5987819123813 C 298.02411433736205 298.18868342813005 297.22846938989284 297.60610987024535 297.72504161895085 296.75 C 298.1238145093738 296.0625 298.3488145093738 294.7125 298.22504161895085 293.75 C 298.1012687285279 292.7875 298.5625 291.31691628487357 299.25 290.482036188608 C 300.26500629368087 289.2494419308938 300.19147562335627 288.63845829446416 298.858868938043 287.232036188608 C 297.95624685396666 286.2794162848736 296.9437468539667 283.5875 296.608868938043 281.25 C 296.2403127917915 278.67742070797135 296.394687225405 277 297 277 C 297.55 277 297.7204484332261 277.5625 297.378774296058 278.25 C 297.0210278974328 278.9698398189964 298.5054764042429 281.09048054301087 300.878774296058 283.25 C 303.1454484332261 285.3125 305.225 287 305.5 287 C 305.775 287 306 285.875 306 284.5 C 306 282.56088137746076 306.50479323971473 282.009989376096 308.25 282.04452535106986 C 310.27578151178574 282.08461363240457 310.3505210078572 281.92728912468107 309 280.4657967404313 L 307.5 278.8425427787229 L 309 277.9365841638785 C 309.825 277.43830692571413 310.8375 277.0237348005015 311.25 277.01531277451704 C 311.6625 277.00689074853267 312.01240577317714 276.4375 312.0275683848381 275.75 C 312.042730996499 275.0625 311.03023099649903 273.8829772031691 309.7775683848381 273.1288382292647 C 308.5249057731771 272.37469925536027 306.9375 272.0371992553603 306.25 272.3788382292647 C 305.40657495169916 272.79796094645275 304.83737001932036 271.86159013524247 304.5 269.5 C 304.0633091425604 266.44316399792297 303.5251814307968 265.8771159936566 300.25 265.02949241315264 C 298.1875 264.4957132403866 294.025 262.8202208844501 291 261.30617606662713 C 287.975 259.79213124880414 284.825 258.52034180065937 284 258.479977292972 C 283.175 258.4396127852847 282.57907090799233 257.97760514122115 282.6757131288718 257.45329363949753 C 282.77235534975125 256.9289821377739 281.3217258610304 256.05 279.4520920428255 255.5 C 277.5824582246205 254.95 276.0349877423968 254.725 276.0132687489951 255 C 275.9915497555934 255.275 276.6005879885386 257.525 277.366687044429 260 C 278.1327861003194 262.475 279.1229395367757 265.4 279.56702801433187 266.5 C 280.231733228313 268.14646409968304 280.120405266594 268.30093582701727 278.9372308049443 267.3738672773869 C 278.14675386222495 266.7544942799497 276.7125 263.2669942799497 275.75 259.6238672773869 C 274.7875 255.98074027482411 274.0035481526023 251.9875 274.00788478356066 250.75 C 274.012221414519 249.5125 272.19954932617225 246.025 269.97972458723444 243 C 266.38166353299005 238.09684954033912 266.0881916735762 237.28296380351304 267.2753659211307 235.5 C 268.0077933937114 234.4 270.2496131164275 229.225 272.2571875271665 224 C 274.26476193790546 218.775 276.4251126582848 212.475 277.0579669057872 210 C 277.6908211532897 207.525 278.3732506605662 203.925 278.57447692195734 202 C 278.77570318334847 200.075 278.9172281582518 191.975 278.88897686618697 184 C 278.8607255741221 176.025 278.761001605728 167.025 278.66736804753333 164 C 278.5737344893387 160.975 279.0602720412004 157.0375 279.74856260722606 155.25 C 280.43685317325173 153.4625 281.8931015561984 151.6625 282.9846701248853 151.25 C 284.07623869357224 150.8375 285.1712703367623 149.6 285.4180737764188 148.5 C 285.6648772160753 147.4 285.60933304244054 144.925 285.2946422794528 143 C 284.979951516465 141.075 284.33491987327494 138.9375 283.8612386279193 138.25 C 283.38755738256367 137.5625 283.18911457730064 136.6625 283.4202546162236 136.25 C 283.65139465514653 135.8375 284.12984823862274 132.35 284.48348480172626 128.5 C 284.8371213648298 124.65 284.6694768590342 117.675 284.11094145551385 113 C 283.15876614469363 105.03019262516133 283.22001555778456 104.40643659555977 285.09288648184156 103 C 286.19149164984213 102.175 287.0769123268698 100.825 287.0604879863474 100 L 287.03062554903414 98.5 L 287.9634982455932 100 L 288.89637094215226 101.5 L 289.36974325531173 100 C 289.6300980275494 99.175 290.1034145655652 95.6875 290.4215577842356 92.25 C 290.96722179826855 86.35416460838853 290.84416757230906 85.86012488332564 288.25 83.53160124273154 C 286.12429546693755 81.62356981446561 284.36491733284083 81.05255222789793 280.5 81.01628846821447 C 277.0144713519984 80.98358443799191 275.9543414055995 80.68992587314341 277 80.04677998440917 C 278.19098650314885 79.31424827937661 277.9334752557729 79.00838935185881 275.75 78.56209275892624 C 274.01401658145886 78.20726231922515 272.9986216526305 77.35471672088981 272.99626193956243 76.25 C 272.99420600632175 75.2875 272.09420600632177 73.0375 270.99626193956243 71.25 C 269.8983178728031 69.4625 267.875 67.55 266.5 67 C 265.125 66.45 263.775 65.55 263.5 65 C 263.225 64.45 259.7375 62.25378478657521 255.75 60.1195217479449 C 251.7625 57.9852587093146 246.1375 55.510258709314606 243.25 54.6195217479449 C 240.3625 53.728784786575204 237.775 52.55 237.5 52 C 237.225 51.45 234.4125 50.48760779188709 231.25 49.86135064863799 C 228.0875 49.23509350538888 223.7 48.750478120773494 221.5 48.784427571714915 C 219.3 48.81837702265633 217.5 48.89435236855037 217.5 48.95326167370169 C 217.5 49.012170978853 213.225 49.106210488535325 208 49.16223836188464 C 202.775 49.218266235233955 195.575 49.14179820320527 192 48.9923094018209 C 188.425 48.842820600436525 184.6 48.393687677693556 183.5 47.99423624016986 Z " class="odd" fill="#000000"></path><path d="M 242.75 78.66862586495958 C 246.7375 78.85088163923182 250.5625 79.33060925146732 251.25 79.73468722548293 C 251.9375 80.13876519949855 252.725 80.53251519949855 253 80.60968722548293 C 253.275 80.68685925146733 254.0625 80.80625 254.75 80.875 C 255.4375 80.94375 258.3639863272364 83.3625 261.2533029494142 86.25 C 264.29007295768594 89.28486067659672 267.8232912200381 94.2425534480231 269.6272213216681 98 C 271.3435598042299 101.575 273.4839571188304 106.975 274.383659798558 110 C 275.2833624782857 113.025 276.01509921077144 118.5375 276.0097414263041 122.25 C 276.00438364183685 125.9625 275.775 129 275.5 129 C 275.225 129 273.5375 128.25232331859033 271.75 127.33849626353405 C 269.87017606661834 126.37747026685352 266.1812405026459 125.68270596568145 263 125.69054456315 C 259.13016118294377 125.7000798713827 256.3144282305863 126.37984461735773 253.5 127.98400249969052 C 251.3 129.23795074494276 249.05 130.87250665181924 248.5 131.616348959416 C 247.94496647645425 132.36699880841206 246.49882542797792 132.75325008940578 245.25 132.48439475934143 C 244.0125 132.21797764170364 242.9467105263158 131.4375 242.88157894736844 130.75 L 242.76315789473685 129.5 L 242.88157894736844 128.75 C 242.9467105263158 128.3375 242.4375 127.99101889250369 241.75 127.98004198334155 C 241.0625 127.9690650741794 239.4875 128.8690650741794 238.25 129.98004198334155 C 236.21368093250217 131.80816599439342 236.00309549932717 131.83380371916496 236.03259473554613 130.25 C 236.0620377043684 128.66921725776476 235.87044460797188 128.69339115173113 234.0511897469363 130.5 C 232.94348989865057 131.6 232.2538222676548 132.8375 232.5185950113902 133.25 C 232.7833677551256 133.6625 233.675 133.775 234.5 133.5 C 235.325 133.225 235.99402867185776 133.5625 235.9867303819061 134.25 C 235.97728764478575 135.13950724255562 234.65610095054151 135.35580289702224 231.40554717169937 135 C 227.0959151236397 134.5282712817181 226.76202244404294 134.66962769030866 225.50039078498185 137.5 C 224.63783840661137 139.4350690432222 224.13419109946238 139.87879027521296 224.0815739951886 138.75 C 224.03670829783488 137.7875 223.4375 136.99310925146733 222.75 136.98468722548296 C 221.93471054382354 136.9746997505961 222.02165265258827 136.66581300859826 223 136.09649062435795 C 223.825 135.61640451972357 224.1625 134.72329526825624 223.75 134.111803398875 C 223.3375 133.50031152949376 221.0875 132.50626543331975 218.75 131.9028120740439 C 216.4125 131.29935871476806 213.7125 129.94935871476807 212.75 128.9028120740439 L 211 127 L 212.75 126.93661369958092 C 214.00465547404588 126.89116914598074 213.79236496292268 126.56779757138679 212 125.79417601048087 C 210.625 125.20069774670634 205.225 124.66672158189492 200 124.60756231089995 C 192.9313786054676 124.52752891594493 188.9722704348079 125.01186918009844 184.5307812050794 126.5 C 181.13935810766853 127.63630383268804 177.25272535476472 129.8253154678132 175.5307812050794 131.56893909680744 C 173.86385154228574 133.25685560005152 170.97910211223038 135.28185560005153 169.1202269160675 136.06893909680744 C 167.26135171990464 136.85602259356335 165.23635171990463 138.08253640798145 164.6202269160675 138.79452535106986 C 163.73372971006862 139.81895450052002 164.17809614893883 140.07976071165032 166.75 140.04452535106986 C 168.5375 140.02003640798145 170 140.45 170 141 C 170 141.55 169.325 142.225 168.5 142.5 C 167.675 142.775 166.4375 142.57296183286064 165.75 142.05102629524586 C 164.88338670248876 141.3931117100231 163.5031945735292 142.00653043400513 161.25 144.05102629524586 C 159.4625 145.67296183286064 157.775 147 157.5 147 L 157 147 L 157.5 145.5 C 157.775 144.675 157.6625 143.97996359201855 157.25 143.95547464893014 C 156.8375 143.9309857058417 155.825 144.62602211382313 155 145.5 C 154.175 146.3739778861769 153.05 147.08058568240028 152.5 147.07023954716314 C 151.95 147.059893411926 152.625 145.88068268377677 154 144.4497712623871 C 155.375 143.0188598409974 157.9625 140.98228845275545 159.75 139.92405706629384 C 161.86905851467924 138.66953721735268 163.00576234132075 137.21704051016255 163.01655930880204 135.75 C 163.02566692864318 134.5125 162.49346332667716 131.925 161.83388463776646 130 C 161.1743059488558 128.075 160.04185425989488 125.9375 159.31732532896444 125.25 C 158.3888449890543 124.3689720569633 158.19215806087757 122.59790618353946 158.6509912378564 119.25 C 159.00903641867743 116.6375 160.62675982842228 111.35 162.24593214840056 107.5 C 163.96826700389008 103.40470445188706 166.91405591180205 98.71195858972237 169.34494091054415 96.19102809622778 C 171.63022340974487 93.82109354915306 175.75 90.5833973424832 178.5 88.99614763696141 C 181.25 87.40889793143964 186.65 85.37148770646843 190.5 84.46856935924764 C 195.8898172179443 83.20452653996232 200.03028722894464 82.97264832722716 208.5 83.46051766025118 C 215.6226339340137 83.87079304510684 219.9406097802257 83.72505701817097 220.75 83.04706784173717 C 221.4375 82.47118052878173 222.45 82.225 223 82.5 C 223.55 82.775 225.2375 82.36779358228637 226.75 81.59509684952525 C 228.2625 80.82240011676414 230.85 79.77328175599595 232.5 79.26372271448483 C 234.15 78.75416367297372 238.7625 78.48637009068734 242.75 78.66862586495958 Z " class="even" fill="#ffffff"></path><path d="M 229.5 136.02106568316265 C 230.05 136.06297703222398 232.40070063262488 140.01288280540112 234.72377918361082 144.79863406800072 C 237.04685773459678 149.58438533060033 239.74685773459677 155.48075195102632 240.72377918361082 157.90167100228075 C 241.84483543190805 160.67977197628392 243.4221327692576 162.67755631119132 245 163.31787678497912 C 246.375 163.87587091420883 247.725 164.4107964847209 248 164.50660027500592 C 248.275 164.60240406529095 250.075 165.36876620811137 252 166.20962725905125 C 253.925 167.05048830999112 257.4125 168.02231078845276 259.75 168.36923276674372 C 262.3371781555042 168.75321093311746 264 168.6087478012951 264 168 C 264 167.45 265.125 167 266.5 167 C 267.875 167 269 166.55 269 166 C 269 165.45 269.9 164.775 271 164.5 C 272.1 164.225 273.7875 163.13430321868833 274.75 162.07622937486292 C 276.42707641680124 160.232623462433 276.5122403211675 160.6805826163682 276.79373984523943 172.82622937486292 C 276.9997119555152 181.71315201446038 276.5854032473053 188.03974991572318 275.40713717307005 194 C 274.48294878849515 198.675 272.77576585813745 204.4903406665785 271.6133973278306 206.92297925906334 C 270.45102879752375 209.35561785154817 268.375 212.0452237315575 267 212.89988121463966 C 265.625 213.7545386977218 264.21281152949376 214.91419803114331 263.861803398875 215.47690195557632 C 263.51079526825623 216.03960588000933 262.8357952682562 216.20306992191547 262.361803398875 215.84015538203437 C 261.8878115294938 215.47724084215324 261.5362612877992 212.32724084215326 261.58058063955383 208.84015538203437 C 261.62489999130844 205.35306992191545 261.33582058759225 201.825 260.938181964629 201 C 260.54054334166574 200.175 259.7167820538665 198.2625 259.10760132507517 196.75 C 258.2734045098474 194.67882042487565 257.32117957512435 194.00329522739318 255.25 194.01334944412272 C 253.7375 194.02069163839022 250.59637518630836 192.78319163839024 248.26972263624077 191.26334944412272 C 245.9430700861732 189.7435072498552 243.64012222685875 187.6 243.15206072665308 186.5 C 242.51513213219621 185.06448121065213 242.86236636006257 183.43672896569478 244.3823380904123 180.732749596477 C 246.22692685998229 177.45128726529234 246.30657454895322 176.83709650278442 245 175.9697458719097 C 244.175 175.4220815453354 242.6 175.26816690371854 241.5 175.62771333498338 C 240.4 175.98725976624823 236.50595442077153 176.33061144230348 232.84656537949226 176.39071705955064 C 229.187176338213 176.4508226767978 226.374676338213 176.1625 226.59656537949226 175.75 C 226.81845442077153 175.3375 225.5375 175.289268303744 223.75 175.64281845276446 C 221.9625 175.99636860178492 219.2625 176.8963686017849 217.75 177.64281845276446 C 216.2375 178.38926830374402 214.775 179.45 214.5 180 C 214.225 180.55 214.21349727087735 181.5625 214.47443837972745 182.25 C 214.73537948857754 182.9375 216.08537948857753 183.8375 217.47443837972745 184.25 C 218.86349727087736 184.6625 220 185.675 220 186.5 C 220 187.325 218.7625 188.82887146239034 217.25 189.84193658308965 C 215.7375 190.85500170378896 212.925 192.4396208855257 211 193.36331254250464 C 209.075 194.2870041994836 206.375 195.01756930626618 205 194.98679055757708 C 203.625 194.95601180888798 201.2625 195.84639262715123 199.75 196.96541459816208 C 198.14681885241453 198.15152694702724 196.7433324848601 200.35533137103533 196.38452732517555 202.25 C 196.0460173540221 204.0375 195.25851735402208 206.08253640798145 194.63452732517555 206.7945253510699 C 193.7806339079497 207.76884007331736 193.80919694673977 208.07803702005714 194.75 208.0445253510699 C 195.4375 208.02003640798145 196.02003640798145 209.0125 196.04452535106986 210.25 C 196.0690142941583 211.4875 195.39401429415832 213.0625 194.54452535106986 213.75 C 193.30359808712367 214.75429499513123 192.75429499513123 214.73875039278238 191.75 213.67091836734699 C 191.0625 212.93992346938782 189.9375 212.48992346938783 189.25 212.67091836734699 C 188.51920208799405 212.86331210336485 188.2076808351976 212.37695749440715 188.5 211.5 C 188.87333333333333 210.38 187.98666666666668 209.87333333333333 185 209.5 C 181.83333333333334 209.10416666666666 181 208.58333333333334 181 207 C 181 205.9 180.55 204.775 180 204.5 C 179.45 204.225 179.30806540204276 202.9875 179.68458978231723 201.75 C 180.1731961886545 200.1441267564094 180.03005690945238 199.71470891880313 179.18458978231723 200.25 C 178.3573449294625 200.773754002358 177.84916933490533 199.64252401414802 177.5 196.5 C 177.14739600371112 193.32656403340016 176.48411398701106 191.86579292443187 175.25 191.54473977520053 C 174.2875 191.29434665156083 173.2526727627602 190.28184665156084 172.95038391724486 189.29473977520053 C 172.64809507172953 188.30763289884024 171.11651555488078 186.825 169.5468738798032 186 C 167.5470483758845 184.94889638385055 166.28146308429118 183.15331084844834 165.31788472844036 180 C 164.56158237026838 177.525 163.84316188711713 170.63048484010125 163.72139476588202 164.67885520022497 C 163.52059401189248 154.86428697333758 163.68603883258425 153.72321935302801 165.5 152.41187196388597 C 166.6 151.6166608237758 167.95 150.9585081589702 168.5 150.94931048654018 C 169.05 150.94011281411014 170.625 151.99902618111918 172 153.30245130211577 C 173.375 154.60587642311236 175.9625 157.32104424781676 177.75 159.3361575792366 C 179.9654490580892 161.83371334541124 182.19371262528168 163.21081889093605 184.75 163.66227903120625 C 186.8125 164.0265324983697 187.9375 164.47653249836972 187.25 164.66227903120625 C 186.5625 164.8480255640428 185.9940017052949 165.3375 185.98667045621087 165.75 C 185.97933920712686 166.1625 188.56683920712686 166.85981558888713 191.73667045621087 167.29959019752698 C 196.94263601068084 168.02185308296328 198.1286064163169 167.81054899425084 204 165.11463544527004 C 207.575 163.47313572288888 212.3 161.53832013400174 214.5 160.81504524774306 C 217.87175224877353 159.7065435549139 219.0060872234039 158.5576283731603 221.72221430902653 153.5 C 223.4944321789911 150.2 225.21431709888847 145.925 225.54418079768735 144 C 225.87404449648622 142.075 226.6740480574243 139.47509422682288 227.32196648866085 138.22243161516192 C 227.96988491989737 136.96976900350097 228.95 135.9791543341013 229.5 136.02106568316265 Z " class="even" fill="#ffffff"></path><path d="M 138.25 153.96740526445387 C 137.2875 153.94947815990352 135.7657262575259 154.73697815990352 134.86828057227973 155.71740526445387 C 133.9708348870336 156.69783236900426 132.93846036601988 158.4 132.57411497002704 159.5 C 132.2097695740342 160.6 132.3815433165083 164.0875 132.9558343977473 167.25 C 133.5301254789863 170.4125 135.72066639777725 176.7125 137.82370310617168 181.25 C 140.0239158879868 185.99716654142858 142.46528466214264 189.82295796915238 143.57370310617168 190.2606422848872 C 144.63316639777725 190.67899554157518 145.725 190.7606050354186 146 190.44199671565036 C 146.275 190.12338839588213 145.49478981417778 189.10609936768287 144.2661995870617 188.18135443076315 C 143.0114194103594 187.23689663699045 141.3176086873988 184.08948415081764 140.40148366766908 181 C 139.27223638659498 177.19179533131654 138.9596542562174 173.73130488089635 139.3852840806074 169.75 C 139.72337783627333 166.5875 140.5625 162.85201139585647 141.25 161.44891421301435 C 141.9375 160.04581703017223 143.175 159.0394797995367 144 159.2126092560465 C 144.825 159.3857387125563 145.5 160.15872731669984 145.5 160.93036170969884 C 145.5 161.70199610269782 145.95 162.5042654713559 146.5 162.713182528939 C 147.05 162.92209958652208 147.78919758276407 162.50959958652209 148.1426612950313 161.79651586227232 C 148.4961250072985 161.08343213802254 148.2711250072985 159.78165391968992 147.6426612950313 158.9036753770887 C 147.01419758276407 158.02569683448746 145.0375 156.56319683448746 143.25 155.6536753770887 C 141.4625 154.74415391968992 139.2125 153.98533236900425 138.25 153.96740526445387 Z " class="odd" fill="#000000"></path><path d="M 286.25 155.9575515089321 C 285.2875 155.93420483884478 283.375 156.78259368525823 282 157.84286005651757 C 279.73944823142574 159.58597788976124 279.64366893885546 159.93830152197398 281 161.52135488309116 C 281.825 162.4842606664473 283.233371132343 165.12337182003387 284.12971362742894 167.38604633550574 C 285.02605612251483 169.64872085097758 286.1470599907573 171.5 286.6208333346345 171.5 C 287.09460667851164 171.5 288.1090263252779 169.025 288.8750992163373 166 C 289.938629890466 161.80042535535935 289.99983979896655 159.96800780917118 289.1339795091317 158.25 C 288.51029077910925 157.0125 287.2125 155.98089817901945 286.25 155.9575515089321 Z " class="odd" fill="#000000"></path><path d="M 238.5 204.1997114952207 C 240.7 204.13647685159583 244.88368168558566 204.62817304732465 247.79707041241258 205.29236970795137 C 251.32059160584075 206.0956648497128 253.7405699095124 207.33704249750411 255.02483456682376 209 C 256.086716124923 210.375 256.97690963248755 211.95 257.00304236141164 212.5 C 257.0291750903358 213.05 257.6764898105041 214.175 258.4415195173413 215 C 259.2065492241785 215.825 259.62363853173207 217.625 259.36838464523817 219 C 259.090996058767 220.4942350599894 257.61604527014333 222.2096612630638 255.7021433348973 223.26398389631757 C 253.94096450070379 224.23417503929224 252.05 226.03417503929222 251.5 227.26398389631757 C 250.76644276303352 228.90422969114738 249.64772742221137 229.5 247.3012920745707 229.5 C 245.54200271558463 229.5 243.51700271558462 230.07 242.8012920745707 230.76666666666668 C 242.08558143355683 231.46333333333337 240.9375 232.02583333333337 240.25 232.01666666666668 C 239.5625 232.0075 239.225 231.325 239.5 230.5 C 239.87155555555555 229.38533333333334 239.16511111111112 228.96957894736843 236.75 228.88157894736844 L 233.5 228.76315789473685 L 232.75 228.88157894736844 C 232.3375 228.9467105263158 232.22195631023342 228.2125 232.49323624496316 227.25 C 232.7645161796929 226.2875 234.56144130919557 224.375 236.48640319941353 223 C 238.70121042932308 221.41796351574484 239.98884290350716 219.67383283582964 239.99316695445037 218.25 C 239.99692512950267 217.0125 240.5625 215.70758113048583 241.25 215.35018028996853 C 242.0772728053412 214.92011775038156 241.57000017175068 214.2437542389275 239.75 213.35018028996853 C 237.4162445811545 212.20436553792038 236.05398958828522 212.22939449508462 230.75 213.5155389164059 C 226.81603099048326 214.46947221718304 223.82372067134008 215.85909081147298 222.67500464307585 217.2655389164059 C 220.8744294029207 219.4701008551226 220.8964135978689 219.54014275983175 224.31795557921055 222.5 C 226.7859261244135 224.63495567980044 227.54922585457203 225.93252216009978 226.9651022478891 227 C 226.5136624544799 227.825 225.86351799520347 229.4 225.52033678283033 230.5 C 225.14128072223684 231.71498978271413 224.62232957797428 232.07886497403626 224.19818547107593 231.42705848486972 C 223.81418346198416 230.83694065154808 222.6 230.0476237823839 221.5 229.67302099783828 C 220.4 229.29841821329265 218.9375 229.44374189510125 218.25 229.99596251296856 C 217.4156339794041 230.6661503230354 216.33498563295345 230.6674928164767 215 230 C 213.9 229.45 212.775 228.1 212.5 227 C 212.225 225.9 211.4375 225.00149246818725 210.75 225.00331659597168 C 210.0625 225.00514072375614 208.9375 224.10514072375614 208.25 223.00331659597168 C 207.5625 221.90149246818726 206.4375 221.02003640798145 205.75 221.04452535106986 C 205.0625 221.0690142941583 203.97739630832345 220.5065142941583 203.338658462941 219.79452535106986 C 202.65867122067348 219.0365564888275 202.43893687910236 217.25655624267827 202.8085154461525 215.5 C 203.15567463230133 213.85 204.57827832397786 211.35311927491406 205.9698569832115 209.95137616647568 C 207.9229685692222 207.9839985500287 209.9824080200875 207.2299971436433 215 206.64526268415932 C 218.575 206.22864337732372 224.425 205.53382790668084 228 205.10122830495294 C 231.575 204.66862870322507 236.3 204.26294613884554 238.5 204.1997114952207 Z " class="even" fill="#ffffff"></path><path d="M 110.5 242.001213577127 C 111.6 241.96600555775095 107.1 245.37146895070612 100.5 249.56891000591634 C 93.9 253.76635106112653 87.15 257.87097518249095 85.5 258.69029694228175 C 83.02170037938438 259.920918037101 82.3812565972349 259.9469490587428 81.8171747187233 258.8399864345871 C 81.28210699535799 257.78996161776377 80.63293262251486 257.74637915053245 78.8171747187233 258.63858076122165 C 77.54272862342548 259.2648001798935 75.15 259.5563860063481 73.5 259.286549264454 L 70.5 258.7959370064647 L 73.5 256.8732806752575 C 75.15 255.81581969309352 79.65 253.45016863514425 83.5 251.61627832425913 C 87.35 249.782388013374 92.525 247.716242417424 95 247.02484366659252 C 97.475 246.333444915761 101.525 244.9346864827631 104 243.91649159326388 C 106.475 242.89829670376466 109.4 242.03642159650306 110.5 242.001213577127 Z " class="even" fill="#ffffff"></path><path d="M 121.79151019748639 273.4702488220107 C 122.69539497339113 274.19093721809617 123.44572861832881 274.11983095323154 124.29151019748639 273.23333333333335 C 124.95617958886888 272.53666666666663 126.0625 271.97416666666663 126.75 271.98333333333335 C 127.4375 271.9925 128 272.675 128 273.5 C 128 274.56666666666666 128.72222222222223 274.85555555555555 130.5 274.5 C 132.0141962702367 274.19716074595266 133.295741118929 274.53391740990554 133.75 275.3540154946303 C 134.1625 276.0987240166769 135.625 277.27779962211235 137 277.9741835067091 C 139.4195555337352 279.19959403876726 139.43564442698818 279.27313080326667 137.5 280.2595105128377 L 135.5 281.2786850015178 L 137.5 282.55584164709137 C 139.44010983938205 283.79475373434616 139.42513729922754 283.84542954096867 137 284.24813320549094 C 135.625 284.4764574075452 132.925 284.56707593179067 131 284.4495077038142 C 129.075 284.33193947583777 126.6 284.1758134006838 125.5 284.10256087013875 C 123.83250065618462 283.99151673685077 123.74937549213846 283.8082156304485 125 283 C 126.28189742217621 282.17157426012227 126.24554699253892 282.0283990453036 124.75 282.01531277451704 C 123.7875 282.00689074853267 123.225 281.55 123.5 281 C 123.775 280.45 123.55 279.775 123 279.5 C 122.45 279.225 121.57852383518859 277.9875 121.06338630041907 276.75 C 120.34025546790252 275.01284371679566 120.11232492710444 274.8988784463966 120.06338630041907 276.25 C 120.02491246169885 277.312204566527 119.21394807603083 278 118 278 C 116.9 278 114.9875 277.10819462170423 113.75 276.01821027045384 C 111.94015440309765 274.42410653000695 111.79343626873177 273.9434569667374 113 273.5612053881998 C 113.825 273.2998370542105 115.85 272.9407544024111 117.5 272.76324393975665 C 119.15 272.5857334771023 121.08117958886888 272.90388567411657 121.79151019748639 273.4702488220107 Z " class="even" fill="#ffffff"></path><path d="M 79.75 292.95547464893014 C 79.8875 292.9799635920185 79.67219065412796 293.7875 79.27153478695102 294.75 C 78.75455467563205 295.99194701215936 78.89971267215796 296.2822630052111 79.77153478695102 295.75 C 80.49773666832334 295.3066407536462 82.1243494300361 296.0368751767622 83.75 297.5360503237898 C 85.2625 298.93087800187425 86.725 300.1683780018742 87 300.2860503237898 C 87.275 300.40372264570544 88.2875 301.9625 89.25 303.75 C 90.2125 305.5375 90.55 307 90 307 C 89.45 307 89 307.45 89 308 C 89 308.55 90.0125 309.288490285097 91.25 309.6410895224378 C 93.37469915562447 310.246477241106 93.34685452354103 310.30216650527285 90.75 310.6410895224378 C 88.30555555555556 310.9601210580486 88.16666666666667 311.1666666666667 89.5 312.5 C 90.325 313.325 91.45 314 92 314 C 92.55 314 93.28343564004942 315.2375 93.62985697788761 316.75 C 94.09899882723292 318.7983064108084 93.78004719578217 319.8237963798423 92.37985697788761 320.7689870027059 C 91.34593564004942 321.4669298541941 89.7125 322.70442985419413 88.75 323.5189870027059 C 87.20322034119413 324.82801601907255 86.94193704537311 324.82581113611934 86.5 323.5 C 86.225 322.675 85.325 322 84.5 322 C 83.675 322 82.775 321.325 82.5 320.5 C 82.225 319.675 81.1 319 80 319 C 78.66666666666667 319 78.16666666666667 318.5 78.5 317.5 C 78.775 316.675 78.55 315.1 78 314 C 77.45 312.9 76.4375 311.99715481692095 75.75 311.9936773709354 C 75.0625 311.99019992494993 73.78485759774041 310.7526999249499 72.91079466164535 309.2436773709354 C 72.0367317255503 307.73465481692097 71.47298494947925 305.15 71.65802404815413 303.5 C 71.84306314682901 301.85 72.8957055490886 299.7125 73.99722938650878 298.75 C 75.16911853819622 297.7260155248743 75.6930328806557 296.48141748223264 75.26008130618756 295.75 C 74.7693012227709 294.92088849166674 74.9376566194376 294.75253309500005 75.76008130618756 295.25 C 76.46155139646217 295.67430408568833 77.54282652385278 295.32927253814097 78.25 294.45547464893014 C 78.9375 293.60598570584165 79.6125 292.9309857058417 79.75 292.95547464893014 Z " class="even" fill="#ffffff"></path><path d="M 176.56272302194444 310.25 C 177.42279556391972 311.89561147680234 179.10438852319766 313.21747946698247 180.75 313.54153816491146 C 182.4651151236463 313.8792837273374 183.74945388270567 313.59704239742274 184.16287390328634 312.79153816491146 C 184.55525565989103 312.02702471618835 185.37137512195045 311.8220494484443 186.16287390328634 312.28922134176696 C 186.89829325647887 312.72329307973877 188.4 313.63983498359175 189.5 314.32598112810695 C 190.6 315.01212727262214 193.075 316.56779554163006 195 317.7830217259025 C 196.93936020630622 319.0073133121046 197.83115437413124 320.04094448537586 197 320.10111531871473 C 196.175 320.1608406104891 197.2552060539691 320.725022737686 199.4004578977091 321.35485337915225 C 203.08928147484502 322.43786567284775 203.30173393130826 322.7170353595638 203.3159941843354 326.5 C 203.32993662178376 330.19865441854654 203.11142657886714 330.51889503837754 200.41553628662632 330.7508088990244 C 198.81199132898186 330.88875379348775 197.35378871657167 331.1137537934877 197.17508603682597 331.2508088990244 C 196.99638335708025 331.387864004561 197.23826494725648 333.3 197.71260068166208 335.5 C 198.18693641606768 337.7 199.008147699496 339.4194648704663 199.5375146448361 339.3210330454806 C 200.06688159017625 339.22260122049494 200.8375 339.78510122049494 201.25 340.5710330454806 C 201.6625 341.3569648704663 201.775 343.35 201.5 345 C 201.08333333333334 347.5 201.66666666666666 348.6666666666667 205 352 C 207.2 354.2 209.1125 355.77058269678935 209.25 355.49018377064306 C 209.3875 355.2097848444967 209.8375 355.6597848444967 210.25 356.49018377064306 C 210.86231250844153 357.72282292088744 210.6328333558441 357.81641667792206 209 357 L 207 356 L 206.5 357 L 206 358 L 204 357 C 202.61653522406544 356.30826761203275 201.76879929097547 356.34273297882106 201.25 357.111803398875 C 200.8375 357.72329526825627 201.175 358.6164045197236 202 359.09649062435795 C 203.2146516686964 359.8033238220696 203.11953555826187 359.9713493176574 201.5 359.97975579794536 C 199.9597577688292 359.9877506924624 200.36204581655477 360.5659679870222 203.25 362.4950685724624 C 205.61278895109098 364.0733683858561 206.81503852681212 365.5548844195636 206.5 366.5 C 206.18632684084437 367.44101947746685 206.65214394295532 368.0236211382198 207.75 368.0633863004191 C 209.10112155360338 368.11232492710445 208.98715628320434 368.3402554679026 207.25 369.0633863004191 C 206.0125 369.5785238351886 204.55 371.125 204 372.5 C 203.24444444444444 374.3888888888889 202.26666666666668 375 200 375 C 198.33333333333334 375 197.22222222222223 375.44444444444446 197.5 376 C 197.775 376.55 198.45 376.775 199 376.5 C 199.55 376.225 200.225 376.45 200.5 377 C 200.775 377.55 200.325 378 199.5 378 C 198.675 378 197.55 379.125 197 380.5 C 196.37246765024258 382.06883087439354 196.34099085939536 384.02428603816713 196.91549120889633 385.75 C 197.41901137378932 387.2625 197.6208656914159 389.4 197.36405635917762 390.5 C 196.96053211010116 392.2284289091656 195.9875619781189 392.52675501161275 190.1985651502813 392.69703873140946 C 186.51435431762658 392.80541003368467 184.35039606851836 392.58041003368464 185.3897690411519 392.19703873140946 C 187.14591194899384 391.5492878168799 187.1635895236604 391.37625697733415 185.6397690411519 389.75 C 184.73789606851835 388.7875 183.55 388.225 183 388.5 C 182.45 388.775 181.775 388.325 181.5 387.5 C 181.225 386.675 180.325 386.225 179.5 386.5 C 178.61111111111111 386.7962962962963 178 386.3888888888889 178 385.5 C 178 384.4611571851858 178.52198305908655 384.2305785925929 179.6978475317789 384.75 C 181.22098515456193 385.42282438246406 181.26023299808688 385.2427479415469 180.07926181239682 383 L 178.76282856123586 380.5 L 176.79463747476794 383 C 175.7121323772106 384.375 175.063595268085 385.05 175.35344389893334 384.5 C 175.6432925297817 383.95 175.29676275735184 381.475 174.58337773797817 379 C 173.47731602616741 375.16265738361733 173.19160456486256 374.83132869180866 172.64315703319483 376.75 C 172.28942066493767 377.9875 170.875 379.675 169.5 380.5 C 167.50841445287105 381.69495132827734 166.54242699241604 381.7615089461264 164.75 380.8272803195955 C 163.5125 380.18228449537304 161.375 379.51034925701117 160 379.33409090101355 C 158.625 379.15783254501594 155.7 378.7882111266122 153.5 378.5127099712275 C 150.94131925580803 378.19229201609767 148.68925791860798 377.1088485187064 147.25 375.50589938980943 C 146.0125 374.12765472541423 144.55 373 144 373 C 143.45 373 142.29274594392064 372.4375 141.42832431982362 371.75 C 140.5639026957266 371.0625 139.10140269572662 369.825 138.17832431982362 369 C 137.2552459439206 368.175 135.6 367.63059123880646 134.5 367.79020275290316 C 133.2760375729727 367.96780138578987 130.94792485405458 366.5958164987425 128.5 364.25433043220676 C 126.3 362.1499891417269 123.825 358.52092981749007 123 356.18975415612476 C 122.00136710166177 353.3679496624948 120.91507171472793 351.9593996754248 119.75 351.9756264768213 C 118.7875 351.9890319145696 117.14076740292808 353.0125 116.09059422872905 354.25 C 114.73996620057146 355.8415491139067 114.52048257187369 356.70320603906026 115.34059422872905 357.1943776636072 C 115.97826740292807 357.5762853785912 116.1625 358.1387853785912 115.75 358.4443776636072 C 115.3375 358.74996994862323 114.35696487046637 358.6625 113.57103304548082 358.25 C 112.78510122049528 357.8375 112.11010122049528 357.1625 112.07103304548082 356.75 C 112.03196487046637 356.3375 112 355.55 112 355 C 112 354.45 110.2 354 108 354 C 105.8 354 104 354.45 104 355 C 104 355.55 103.4375 355.98240380434373 102.75 355.9608973429861 C 102.0625 355.93939088162847 100.4875 354.81439088162847 99.25 353.4608973429861 C 98.0125 352.10740380434373 96.97996359201855 350.6625 96.9554746489301 350.25 C 96.93098570584168 349.8375 97.67916531537993 350.175 98.61809600345957 351 C 99.90512762339205 352.13086205395626 100.40826888254426 352.19238504496354 100.66262135452945 351.25 C 100.84817960953825 350.5625 101.675 350 102.5 350 C 103.53941531925672 350 103.77632005494353 350.5373487942005 103.27153478695112 351.75 C 102.75455467563224 352.9919470121593 102.89971267215816 353.2822630052111 103.77153478695112 352.75 C 104.44971578019424 352.3359583653411 105 349.98424980795335 105 347.5 C 105 344.8333333333333 104.5925925925926 343.2037037037037 104 343.5 C 103.45 343.775 103.225 344.45 103.5 345 C 103.775 345.55 103.325 346 102.5 346 C 101.675 346 100.775 345.325 100.5 344.5 C 100.16666666666667 343.5 100.58333333333333 343.0833333333333 101.75 343.25 C 102.91666666666667 343.4166666666667 103.41666666666667 342.9166666666667 103.25 341.75 C 103.10714285714286 340.75 103.64285714285714 340 104.5 340 C 105.325 340 105.94818049180276 339.2125 105.88484553733947 338.25 C 105.82151058287619 337.2875 105.81757499554493 336.05 105.87609978771448 335.5 C 105.93462457988403 334.95 107.33644408808127 333.0375 108.99125425037501 331.25 C 111.90846626839864 328.0988733021863 112.03802819314858 328.0609460083595 113.25 330.00331659597174 C 113.9375 331.1051407237562 114.95 332.0066331919435 115.5 332.0066331919435 C 116.05 332.0066331919435 117.0625 331.1051407237562 117.75 330.00331659597174 L 119 328 L 117.75 327.60055191025674 C 117.0625 327.3808554608979 117.85 327.3020691784039 119.5 327.42547128249214 C 121.15 327.5488733865804 122.95 327.3042128843226 123.5 326.88178127747483 C 124.05 326.4593496706271 127.875 325.55867432134175 132 324.88028050128514 C 137.4585304328909 323.98257545588785 140.11244087013273 323.0144120780271 141.75 321.3234185960457 C 142.9875 320.04553836822055 144.5625 319.03552631578947 145.25 319.07894736842104 L 146.5 319.1578947368421 L 145.25 319.57894736842104 C 144.5625 319.81052631578945 144 320.45 144 321 C 144 321.5823124298146 144.82526494967826 321.6867343223609 145.9757948490348 321.25 C 147.40885210291913 320.7060199704244 148.4389519550412 321.111854318062 149.7257948490348 322.72740901088935 L 151.5 324.95481802177875 L 154 322.45169481479616 C 155.375 321.0749770509557 156.05 319.9676429960555 155.5 319.99095247057346 C 154.95 320.0142619450914 155.07 319.46333333333337 155.76666666666665 318.76666666666665 C 156.46333333333334 318.07 157.0111657023376 316.375 156.98407193112055 315 C 156.93636007176553 312.5786387916376 156.9987468464647 312.55504715414634 158.96740526445387 314.25 C 160.73316041693192 315.7702595297514 161.4554526612051 315.8358996641082 164.46931542469002 314.75 C 166.4819010102854 314.0248621344457 168.13361380107713 312.6602205848869 168.4029979157503 311.5 C 168.81868785582643 309.70964934776555 169.0362210595975 309.65723701082413 170.4782078421302 311 C 171.36417141513544 311.825 172.0690142941583 313.2875 172.04452535106986 314.25 C 172.02003640798145 315.2125 172.45 316 173 316 C 173.55 316 174.6098348808058 317.4625 175.3551886240129 319.25 C 176.31329354614576 321.54771778020927 176.88094703834014 322.06048512932733 177.2925070064112 321 C 177.61267837352318 320.175 177.46307601515824 319.05 176.96005732115577 318.5 C 176.4570386271533 317.95 175.83847071494907 315.25 175.5854619607019 312.5 C 175.1392532621747 307.65007326682814 175.1685854141756 307.5825402967555 176.56272302194444 310.25 Z " class="even" fill="#ffffff"></path><path d="M 271.8150624028193 314.32764989059024 C 272.1917780812687 314.7828573304148 272.38655381494965 316.5828573304148 272.24789736655475 318.32764989059024 C 272.04743096742976 320.8502320409884 272.2522532400674 321.2516060610956 273.24789736655475 320.28727085826324 C 274.2408032603795 319.3255877819085 274.7810505746477 319.94661532237615 275.8576720338491 323.28727085826324 C 276.6043916524661 325.60427188621844 277.86280597323 328.625 278.65414830221346 330 C 280.06256110164003 332.4471932415134 280.0814094805998 332.42078986227006 279.54647626836436 328.75 C 279.1938483637088 326.3302157952509 279.46325346335095 324.55659473491636 280.3059538864056 323.75 C 281.0242285239286 323.0625 281.9260453930928 321.6 282.309991373437 320.5 C 282.71553621268157 319.33811956367146 282.48255829833374 317.95751648879985 281.7540374870315 317.20547464893014 C 280.742595572706 316.1613773131093 280.8385403200669 315.9195627987758 282.25 315.95547464893014 C 283.2907845962373 315.98195539152186 286.0263297250363 319.0394945875545 289 323.5 C 291.75 327.625 294.0143115173417 331.3375 294.03180337187047 331.75 C 294.04929522639924 332.1625 294.77460924620254 333.4 295.64361230476675 334.5 C 297.1335264338482 336.3859606141059 297.18343314822863 336.27192122821174 296.5188663056384 332.5 C 296.13125294755366 330.3 295.47114941285366 328.275 295.0519695618607 328 C 294.6327897108677 327.725 293.7094034080304 325.7 293 323.5 C 292.2905965919696 321.3 291.2128861068663 319.2158490274382 290.60508781088146 318.8685533943071 C 289.97010302613614 318.5057234155073 290.45714729489475 317.9739749183436 291.75 317.6185533943071 C 293.53916914162437 317.126688218511 295.08558805262555 318.0752720028765 299.3003679636757 322.25 C 302.2155703436973 325.1375 306.3780703436973 329.02843436956505 308.5503679636757 330.89652082125565 C 310.7226655836541 332.7646072729463 315.65 337.19990388356604 319.5 340.7527355115217 C 323.35 344.3055671394774 328.41352056304606 349.07713276991234 330.7522679178802 351.35621469026603 C 333.09101527271434 353.6352966106197 335.34101527271434 355.17291836439034 335.7522679178802 354.77315192086746 C 336.16352056304606 354.3733854773445 335.825 353.34084906936306 335 352.4786265697976 C 334.175 351.6164040702321 333.95 350.9294932376544 334.5 350.95215805295845 C 335.05 350.97482286826244 336.0625 351.89485927624384 336.75 352.9966834040283 L 338 355 L 336.75 355.3464694893442 C 336.0625 355.5370277084835 337.075 356.6603455812866 339 357.8427314289067 C 340.925 359.02511727652677 342.1625 359.99420600632186 341.75 359.9962619395625 C 341.3375 359.9983178728031 342.09260205551067 361.4625 343.42800456780145 363.25 C 344.76340708009224 365.0375 345.9876080762441 366.95 346.1484512259167 367.5 C 346.3092943755892 368.05 347.01669232007856 368.3875 347.7204466581152 368.25 C 348.461655597129 368.10518209465147 348.789635810697 368.6310925679089 348.5 369.5 C 348.225 370.325 348.626221275899 372.0125 349.3916028353312 373.25 C 350.15698439476336 374.4875 351.05698439476333 377.6375 351.3916028353312 380.25 C 351.7637623409431 383.1555981097792 351.61170486521667 385 351 385 C 350.43686422517004 385 349.944999471748 388.1672656324827 349.8741015512759 392.25 L 349.74820310255177 399.5 L 348.41499428094653 392 C 347.68172942906364 387.875 347.2883837309895 382.8125 347.54089272967065 380.75 C 347.9398220050147 377.49153541182875 347.7739314876648 377.09830708236575 346.27528820740906 377.75 C 344.9049183582981 378.34591254101025 344.6994684129785 378.1404625956906 345.27528820740906 376.75 C 345.68242764617617 375.7668588049394 345.5617949686061 375 345 375 C 344.4267882126467 375 344.2921748495914 374.0397265215448 344.68458978231723 372.75 C 345.17319618865446 371.14412675640943 345.03005690945236 370.7147089188031 344.18458978231723 371.25 C 343.4301545316615 371.7276560176679 342.6333109604276 371.00140539811576 341.9901859504132 369.25 C 341.0857195830606 366.78689056788477 341.05297120631326 366.86513345003516 341.6762751909233 370 C 342.05902200047655 371.925 342.3248008376601 378.675 342.266894829109 385 C 342.20898882055786 391.325 341.90024866232835 397.9625 341.58080558859893 399.75 C 341.2613625148695 401.5375 340.55 403 340 403 C 339.45 403 339.0124999999998 402.2125 339.02777777777743 401.25 C 339.04305555555504 400.2875 338.705555555555 399.16607950801836 338.27777777777743 398.75795446226306 C 337.84999999999985 398.34982941650776 336.8744308418089 398.5748294165077 336.10984631513077 399.25795446226306 C 334.9442273331736 400.299387413885 334.82826627102753 400.01544630204 335.3919007336548 397.5 C 335.83359727908595 395.52875087401526 335.5666248088242 393.8141660839898 334.6133668524059 392.5 C 333.1908116794294 390.5388584765093 333.152086881066 390.5485730956366 332.62024710906326 393 C 332.321939341778 394.375 331.9049899619069 396.4 331.69369293157195 397.5 L 331.3095165127812 399.5 L 330.41810529473236 397.5 C 329.9278291248055 396.4 328.5081879094297 394.4875 327.26334703834175 393.25 C 326.0185061672538 392.0125 323.875 390.775 322.5 390.5 C 320.9039104894056 390.1807820978811 319.99446344899684 390.4519552447028 319.98468722548296 391.25 C 319.9747078691447 392.0646267293925 319.6664600178285 391.977552075271 319.0996769592174 391 C 318.3627998267783 389.729080273146 318.0643420523444 389.8054403641947 317.14539841963517 391.5 C 316.2031417424049 393.23754958951633 316.05682698575305 393.2703558908268 316.03040868590074 391.75 C 316.01368390865537 390.7875 315.01256617935286 387.8625 313.80570262078413 385.25 C 312.59883906221535 382.6375 311.13633906221537 380.1693907485327 310.55570262078413 379.76531277451704 C 309.97506617935284 379.36123480050145 308.2625 379.0237348005015 306.75 379.01531277451704 C 305.2375 379.00689074853267 303.8875 379.53441992456146 303.75 380.18759983235884 C 303.584275979211 380.9748551095863 303.04153255523886 381.0591310887973 302.1399818517284 380.43759983235884 C 301.3824559450338 379.91535962253005 301.0502036278445 378.7247445932249 301.3899818517284 377.75 C 301.8001724947574 376.57325857462655 301.42674142537345 375.87893804160774 300.25 375.63043129825934 C 299.2875 375.427168512302 297.2625 375.20216851230197 295.75 375.13043129825934 C 294.2375 375.0586940842167 292.1 374.55 291 374 C 289.9 373.45 288.55 373.225 288 373.5 C 287.45 373.775 287.225 373.325 287.5 372.5 C 287.775 371.675 287.2125 370.199037634335 286.25 369.2200836318556 C 285.2875 368.24112962937613 283.825 367.1828875775087 283 366.8684346277057 C 282.175 366.5539816779027 281.15698529411765 364.7674440435677 280.7377450980392 362.89835099585014 C 280.3185049019608 361.02925794813257 279.9810049019608 358.4875 279.9877450980392 357.25 C 279.9944852941177 356.0125 279.6625 355.0116744562987 279.25 355.02594323621935 C 278.8375 355.04021201614 277.98343953335825 353.57771201613997 277.3520878519072 351.77594323621935 C 276.7207361704561 349.9741744562987 276.1582361704561 349.2875 276.1020878519072 350.25 C 276.04593953335825 351.2125 275.55 352 275 352 C 274.45 352 273.96798292523323 351.8875 273.9288509449627 351.75 C 273.8897189646921 351.6125 273.55221896469214 348.01357584353656 273.1788509449627 343.7523907634146 C 272.75015126462654 338.85971494446005 272.8684921800327 335.8918549394258 273.5 335.69832566827233 C 274.0555956129152 335.528060137706 273.73840777936795 334.3048856074729 272.7862630460785 332.9459349048577 C 271.6667457924201 331.34810139776806 271.262514571047 329.4597825403075 271.62045521155335 327.5 C 272.0414659046518 325.1948987841956 271.9207966678736 324.8474493920978 271.0995049399919 326 C 270.51162127496514 326.825 270.0237348005015 328.2875 270.01531277451704 329.25 C 270.00689074853267 330.2125 269.46806014988306 331.3375 268.8179114441846 331.75 C 267.9304087091902 332.31309406598274 267.8173281643845 331.12935648387327 268.36415159407505 327 C 268.7647323822133 323.975 269.2116617860394 320.825 269.3573280470217 320 C 269.50299430800413 319.175 269.9614643218221 317.375 270.37615029995055 316 C 270.790836278079 314.625 271.4383467243699 313.8724424507656 271.8150624028193 314.32764989059024 Z " class="even" fill="#ffffff"></path><path d="M 419.5 329 C 419.225 329 418.1 330.575 417 332.5 C 415.9 334.425 415 336.225 415 336.5 C 415 336.775 415.7875 337.03552631578947 416.75 337.07894736842104 C 418.15260533279053 337.142222796968 418.2022331423919 337.27540763293894 417 337.74986573576797 C 416.175 338.0754497851772 414.9375 338.93992346938774 414.25 339.6709183673469 C 413.5625 340.4019132653061 413 341.675 413 342.5 C 413 343.43333333333334 412.05555555555554 344 410.5 344 C 409.125 344 408 344.45 408 345 C 408 345.55 408.7875 345.69074613777485 409.75 345.31276919505524 C 411.2474587032874 344.72471219503717 411.31961335949103 344.8690215074443 410.25 346.31276919505524 C 409.5625 347.24074613777486 408.55 347.775 408 347.5 C 407.45 347.225 407 347.675 407 348.5 C 407 349.43008108583103 406.5288979229097 349.7150405429155 405.76008130618754 349.25 C 404.9376566194376 348.75253309500005 404.7693012227709 348.92088849166674 405.26008130618754 349.75 C 405.6670365877844 350.4375 405.775 351.9 405.5 353 C 405.225 354.1 404.6625 354.7811565412343 404.25 354.5136812027428 C 403.8375 354.24620586425135 402.3715128380205 355.0337058642514 400.9922507511567 356.2636812027428 C 399.6129886642928 357.49365654123426 397.3629886642928 359.2909794126945 395.9922507511567 360.25773202821006 L 393.5 362.0154640564201 L 398.5 362.02247383060705 C 401.25 362.0263292064099 404.625 362.5972221724154 406 363.29112486617487 C 407.72390702667496 364.1611057604298 408.65521859466503 365.62202169062965 409 367.9971200897264 C 409.4375015727328 371.0109406407227 409.9999874181377 371.58356881208186 413.5 372.578260739161 C 416.8761681737536 373.5377564976327 417.45701672475553 374.08817313923424 417.2243919054074 376.1075237132124 C 417.07280745338153 377.4233856709456 416.95271426853066 379.4 416.9575181612944 380.5 C 416.96232205405806 381.6 417.65420283948185 383.175 418.4950310177917 384 C 419.86606156348813 385.34522156770873 420.0225811235532 382.5850061918479 420.0119047619047 357.25 C 420.0053571428571 341.7125 419.775 329 419.5 329 Z " class="odd" fill="#000000"></path><path d="M 260.771534786951 352.25 C 261.44719065412795 352.6625 263.5317775169197 358.0625 265.4039500375994 364.25 C 267.27612255827904 370.4375 269.495939372212 378.65 270.33687629078366 382.5 C 271.17781320935535 386.35 272.7506395592449 393.775 273.83204595720485 399 C 274.91345235516474 404.225 275.82337155590903 410.3 275.8540886255254 412.5 C 275.8978205612436 415.63214313024 275.7179931452757 416.06607156512 275.0252541841152 414.5 C 274.5386781717233 413.4 274.1089421570461 411.2625 274.07028526261035 409.75 C 274.03162836817467 408.2375 273.6625 407.1779829858009 273.25 407.3955177462242 C 272.8375 407.6130525066475 272.39957791219524 405.7005525066475 272.2768398048783 403.1455177462242 C 272.1541016975614 400.59048298580086 271.5916016975614 398.3875 271.0268398048783 398.25 C 270.46207791219524 398.1125 270 397.325 270 396.5 C 270 395.675 269.4375 395.0075 268.75 395.01666666666665 C 268.0625 395.02583333333325 266.9556980530946 394.46333333333325 266.29044011798794 393.76666666666665 C 265.53634521592977 392.97696878552375 265.40861332759545 391.9351685434587 265.95122772058585 391 C 266.46609095058335 390.112659186529 266.34746374630214 387.6012484074379 265.6607876025979 384.85120430499205 C 264.9346485771651 381.94311675490593 264.0319464816471 380.3517347925061 263.25 380.60120430499205 C 262.5625 380.82054193724645 262 380.55 262 380 C 262 379.45 261.55 379 261 379 C 260.45 379 260.05328947368423 379.3375 260.11842105263156 379.75 L 260.2368421052632 380.5 L 260.11842105263156 382.25 C 260.05328947368423 383.2125 259.6625 384.0001993009514 259.25 384.0004428910031 C 258.8375 384.00068648105474 258.4192513015707 380.28818648105477 258.32055844793484 375.7504428910031 C 258.221865594299 371.2126993009514 258.5456816856437 366.825 259.0401497620341 366 C 259.6343605119977 365.00858338055195 259.94949286304757 364.9238194837933 259.96959131409926 365.75 C 259.9863160913447 366.4375 260.45 367 261 367 C 261.586709692783 367 261.87172663262487 364.6235807335025 261.68962889974625 361.25 C 261.51892479460673 358.0875 260.9661154487347 354.6 260.4611636866973 353.5 C 259.77711211300374 352.009844330423 259.8562325858995 351.69119162390865 260.771534786951 352.25 Z " class="even" fill="#ffffff"></path><path d="M 149.75 391.07028526261035 C 150.9875 391.03162836817467 154.3625 391.4786756635862 157.25 392.06372369685823 C 160.1375 392.64877173013025 163.75535762006507 393.66127173013024 165.28968360014463 394.31372369685823 C 166.82400958022419 394.9661756635862 168.06150958022417 396.0625 168.03968360014463 396.75 C 168.0178576200651 397.4375 167.55 398 167 398 C 166.45 398 166.21189669180995 398.3375 166.47088153735547 398.75 C 166.72986638290098 399.1625 166.27986638290096 401.6375 165.47088153735547 404.25 C 164.66189669180997 406.8625 163.4375 409.00689074853267 162.75 409.01531277451704 C 161.77283502086127 409.02728326011027 161.7785141484429 409.1909842726271 162.77601905523204 409.76531277451704 C 163.4778295356097 410.1693907485327 163.8153295356097 411.2875 163.52601905523204 412.25 C 163.23670857485442 413.2125 162.4375 414.0200364079814 161.75 414.04452535106986 C 160.86239977896517 414.0761419202309 160.93487973475823 413.6283534035638 162 412.5 C 163.35057878294694 411.069241224442 163.22606110206942 410.9153846526246 160.75 410.95547464893014 C 159.2375 410.9799635920185 158 411.45 158 412 C 158 412.55 158.45 413 159 413 C 159.55 413 160 413.675 160 414.5 C 160 415.5216318441103 160.51156653874418 415.76081592205514 161.6040988486975 415.25 C 162.8343549785793 414.6747909982851 163.06740964295943 414.90784566266524 162.6040988486975 416.25 C 162.2718444819139 417.2125 161.325 418 160.5 418 C 159.675 418 159 417.55 159 417 C 159 416.45 157.3125 415.70012795332815 155.25 415.33361767406257 L 151.5 414.6672353481252 L 154.5 413.95193246248857 C 156.3698765620476 413.5060897622829 156.74658437469841 413.2037464547734 155.5 413.1493387881445 C 154.4 413.1013288543555 152.15 412.4223654562451 150.5 411.64053123678815 C 148.85 410.8586970173312 147.95 410.01491033180207 148.5 409.7654497133901 C 149.05 409.5159890949782 151.75 409.2012999615326 154.5 409.0661405279555 C 157.25 408.9309810943784 160.4 408.4393308152228 161.5 407.973584352054 C 163.20505958787658 407.2516521042854 163.241927139392 407.11742501005386 161.75 407.0633863004191 C 160.7875 407.0285238351886 160 406.55 160 406 C 160 405.45 158.9875 404.80511951459437 157.75 404.5669322546542 C 155.59072157967265 404.15132610484756 155.64112245726858 404.0051375251796 159 400.9412865655055 C 160.925 399.18536869641383 163.4 397.1267697691249 164.5 396.3666222826412 C 165.95620275609983 395.3603233145867 166.09215206707486 394.9845359435799 165 394.9845359435799 C 164.175 394.9845359435799 162.4875 395.6630153562744 161.25 396.49226797178994 C 159.92592515988656 397.3795346580949 158.2798359867549 397.70022032494927 157.25 397.271534786951 C 156.00805298784064 396.75455467563205 155.71773699478885 396.89971267215793 156.25 397.771534786951 C 156.71316070056812 398.53017053188347 156.42632140113622 399 155.5 399 C 154.675 399 153.775 398.1 153.5 397 C 153.2233009708738 395.8932038834952 153.55825242718447 394.8119570771589 154.25 394.57894736842104 C 154.9375 394.34736842105264 153.25 394.05494398002173 150.5 393.92911527724135 C 146.80182959021948 393.75990219166914 146.28109775413168 393.578358091922 148.5 393.2318500548531 C 151.14742036882856 392.8184238045498 151.26494691255238 392.6680036207687 149.5 391.9519674086432 C 147.6007522927331 391.18144557338144 147.6133463293247 391.1370298245441 149.75 391.07028526261035 Z " class="even" fill="#ffffff"></path><path d="M 182.75 394.1361820538333 C 183.4375 394.06128192422494 184 394.45 184 395 C 184 395.5832886164145 187.43786891458032 396.01325282709485 192.25 396.03180337187047 C 197.94048053511216 396.0537399135165 201.12048956724553 396.52437604943384 202.5 397.54878660820947 C 203.6 398.36563553366716 205.2875 399.0263240163255 206.25 399.016983236339 C 207.2125 399.0076424563525 208 398.55 208 398 C 208 397.4074074074074 208.91666666666666 397.50925925925924 210.25 398.25 C 212.2651534484432 399.3695296935795 211.76936628404542 399.5557805870375 205.5 400.03441841066984 C 201.65 400.3283485365383 198.275 400.16607731194654 198 399.67381568935497 C 197.725 399.1815540667634 196.2625 399.05356578196194 194.75 399.3893972786851 C 192.70084323497116 399.8443866230951 192 399.6177218718339 192 398.5 C 192 397.3190836088805 190.45776255707761 396.9664889360536 184.75 396.8424657534247 C 180.7625 396.7558219178082 176.825 396.74281733065226 176 396.81356667085583 C 175.04728350379767 396.89526856601634 174.86485566919845 396.61878471125016 175.5 396.0557770074155 C 176.05 395.56824335231977 177.625 394.9675298637007 179 394.7208581438176 C 180.375 394.4741864239345 182.0625 394.2110821834416 182.75 394.1361820538333 Z " class="even" fill="#ffffff"></path></g></svg>